ISO-10303-21;
HEADER;
FILE_DESCRIPTION (( 'STEP AP203' ),
    '1' );
FILE_NAME ('Lid.STEP',
    '2026-04-20T01:35:17',
    ( '' ),
    ( '' ),
    'SwSTEP 2.0',
    'SolidWorks 2025',
    '' );
FILE_SCHEMA (( 'CONFIG_CONTROL_DESIGN' ));
ENDSEC;

DATA;
#1 = CARTESIAN_POINT ( 'NONE',  ( -4.124999999999999112, 0.2500000000000000000, -4.125000000000000000 ) ) ;
#2 = ORIENTED_EDGE ( 'NONE', *, *, #362, .F. ) ;
#3 = VECTOR ( 'NONE', #106, 39.37007874015748143 ) ;
#4 = AXIS2_PLACEMENT_3D ( 'NONE', #289, #265, #116 ) ;
#5 = VERTEX_POINT ( 'NONE', #162 ) ;
#6 = COORDINATED_UNIVERSAL_TIME_OFFSET ( 8, 0, .BEHIND. ) ;
#7 = ORIENTED_EDGE ( 'NONE', *, *, #90, .T. ) ;
#8 = ORIENTED_EDGE ( 'NONE', *, *, #90, .F. ) ;
#9 = COORDINATED_UNIVERSAL_TIME_OFFSET ( 8, 0, .BEHIND. ) ;
#10 = ADVANCED_FACE ( 'NONE', ( #337 ), #370, .F. ) ;
#11 = ORIENTED_EDGE ( 'NONE', *, *, #99, .T. ) ;
#12 = LINE ( 'NONE', #193, #3 ) ;
#13 = CC_DESIGN_APPROVAL ( #250, ( #19 ) ) ;
#14 = AXIS2_PLACEMENT_3D ( 'NONE', #87, #57, #292 ) ;
#15 = LINE ( 'NONE', #375, #221 ) ;
#16 = CC_DESIGN_PERSON_AND_ORGANIZATION_ASSIGNMENT ( #274, #354, ( #19 ) ) ;
#17 = FACE_BOUND ( 'NONE', #118, .T. ) ;
#18 = FACE_OUTER_BOUND ( 'NONE', #178, .T. ) ;
#19 = PRODUCT_DEFINITION_FORMATION_WITH_SPECIFIED_SOURCE ( 'ANY', '', #61, .NOT_KNOWN. ) ;
#20 = FACE_OUTER_BOUND ( 'NONE', #349, .T. ) ;
#21 = EDGE_CURVE ( 'NONE', #273, #170, #52, .T. ) ;
#22 = CARTESIAN_POINT ( 'NONE',  ( 0.000000000000000000, 0.000000000000000000, 0.000000000000000000 ) ) ;
#23 = ORIENTED_EDGE ( 'NONE', *, *, #309, .T. ) ;
#24 = ORIENTED_EDGE ( 'NONE', *, *, #309, .F. ) ;
#25 = DIRECTION ( 'NONE',  ( 1.000000000000000000, -0.000000000000000000, 0.000000000000000000 ) ) ;
#26 = ORIENTED_EDGE ( 'NONE', *, *, #168, .F. ) ;
#27 = FACE_OUTER_BOUND ( 'NONE', #241, .T. ) ;
#28 = LINE ( 'NONE', #1, #367 ) ;
#29 = EDGE_CURVE ( 'NONE', #357, #60, #231, .T. ) ;
#30 = FACE_OUTER_BOUND ( 'NONE', #65, .T. ) ;
#31 = DATE_AND_TIME ( #296, #188 ) ;
#32 = VERTEX_POINT ( 'NONE', #161 ) ;
#33 =( GEOMETRIC_REPRESENTATION_CONTEXT ( 3 ) GLOBAL_UNCERTAINTY_ASSIGNED_CONTEXT ( ( #248 ) ) GLOBAL_UNIT_ASSIGNED_CONTEXT ( ( #74, #285, #49 ) ) REPRESENTATION_CONTEXT ( 'NONE', 'WORKASPACE' ) );
#34 = VECTOR ( 'NONE', #322, 39.37007874015748143 ) ;
#35 = DIRECTION ( 'NONE',  ( 1.000000000000000000, 0.000000000000000000, 0.000000000000000000 ) ) ;
#36 = VERTEX_POINT ( 'NONE', #340 ) ;
#37 = DATE_AND_TIME ( #119, #217 ) ;
#38 = ORIENTED_EDGE ( 'NONE', *, *, #187, .F. ) ;
#39 = ADVANCED_FACE ( 'NONE', ( #222 ), #44, .F. ) ;
#40 = PERSON_AND_ORGANIZATION ( #50, #334 ) ;
#41 = ORIENTED_EDGE ( 'NONE', *, *, #348, .T. ) ;
#42 = CC_DESIGN_APPROVAL ( #369, ( #262 ) ) ;
#43 = CARTESIAN_POINT ( 'NONE',  ( 4.125000000000000000, 0.2500000000000000000, 4.125000000000000000 ) ) ;
#44 = PLANE ( 'NONE',  #378 ) ;
#45 = ADVANCED_FACE ( 'NONE', ( #17, #20 ), #134, .F. ) ;
#46 = DIRECTION ( 'NONE',  ( -1.000000000000000000, 0.000000000000000000, -0.000000000000000000 ) ) ;
#47 = DIRECTION ( 'NONE',  ( 0.000000000000000000, 0.000000000000000000, -1.000000000000000000 ) ) ;
#48 = ADVANCED_FACE ( 'NONE', ( #194 ), #192, .F. ) ;
#49 =( NAMED_UNIT ( * ) SI_UNIT ( $, .STERADIAN. ) SOLID_ANGLE_UNIT ( ) );
#50 = PERSON ( 'UNSPECIFIED', 'UNSPECIFIED', 'UNSPECIFIED', ('UNSPECIFIED'), ('UNSPECIFIED'), ('UNSPECIFIED') ) ;
#51 = VECTOR ( 'NONE', #291, 39.37007874015748143 ) ;
#52 = LINE ( 'NONE', #256, #249 ) ;
#53 = ORIENTED_EDGE ( 'NONE', *, *, #197, .T. ) ;
#54 = AXIS2_PLACEMENT_3D ( 'NONE', #232, #380, #85 ) ;
#55 = LINE ( 'NONE', #138, #129 ) ;
#56 = CARTESIAN_POINT ( 'NONE',  ( -4.124999999999999112, 0.2500000000000000000, 4.125000000000000000 ) ) ;
#57 = DIRECTION ( 'NONE',  ( 0.000000000000000000, -1.000000000000000000, 0.000000000000000000 ) ) ;
#58 = CC_DESIGN_DATE_AND_TIME_ASSIGNMENT ( #179, #123, ( #262 ) ) ;
#59 = PLANE ( 'NONE',  #14 ) ;
#60 = VERTEX_POINT ( 'NONE', #283 ) ;
#61 = PRODUCT ( 'Lid', 'Lid', '', ( #359 ) ) ;
#62 = DIRECTION ( 'NONE',  ( -0.000000000000000000, -1.000000000000000000, -0.000000000000000000 ) ) ;
#63 = DATE_AND_TIME ( #183, #342 ) ;
#64 = EDGE_CURVE ( 'NONE', #36, #245, #286, .T. ) ;
#65 = EDGE_LOOP ( 'NONE', ( #139, #319, #152, #213 ) ) ;
#66 = ORIENTED_EDGE ( 'NONE', *, *, #69, .T. ) ;
#67 = AXIS2_PLACEMENT_3D ( 'NONE', #372, #78, #75 ) ;
#68 = PERSON_AND_ORGANIZATION_ROLE ( 'design_owner' ) ;
#69 = EDGE_CURVE ( 'NONE', #155, #245, #55, .T. ) ;
#70 = ORIENTED_EDGE ( 'NONE', *, *, #358, .T. ) ;
#71 = PERSON_AND_ORGANIZATION ( #50, #334 ) ;
#72 = ORIENTED_EDGE ( 'NONE', *, *, #29, .F. ) ;
#73 = PERSON_AND_ORGANIZATION ( #50, #334 ) ;
#74 =( CONVERSION_BASED_UNIT ( 'INCH', #366 ) LENGTH_UNIT ( ) NAMED_UNIT ( #227 ) );
#75 = DIRECTION ( 'NONE',  ( 0.000000000000000000, -0.000000000000000000, -1.000000000000000000 ) ) ;
#76 = CARTESIAN_POINT ( 'NONE',  ( -4.124999999999999112, 0.2500000000000000000, 4.125000000000000000 ) ) ;
#77 = CARTESIAN_POINT ( 'NONE',  ( 4.125000000000000000, 0.2500000000000000000, 4.125000000000000000 ) ) ;
#78 = DIRECTION ( 'NONE',  ( 0.000000000000000000, -1.000000000000000000, 0.000000000000000000 ) ) ;
#79 = LINE ( 'NONE', #77, #268 ) ;
#80 = LINE ( 'NONE', #196, #214 ) ;
#81 = DIRECTION ( 'NONE',  ( -0.000000000000000000, 0.000000000000000000, 1.000000000000000000 ) ) ;
#82 = AXIS2_PLACEMENT_3D ( 'NONE', #131, #288, #81 ) ;
#83 = LINE ( 'NONE', #56, #51 ) ;
#84 = CC_DESIGN_PERSON_AND_ORGANIZATION_ASSIGNMENT ( #246, #361, ( #312 ) ) ;
#85 = DIRECTION ( 'NONE',  ( 1.000000000000000000, 0.000000000000000000, 0.000000000000000000 ) ) ;
#86 = ORIENTED_EDGE ( 'NONE', *, *, #64, .F. ) ;
#87 = CARTESIAN_POINT ( 'NONE',  ( 0.000000000000000000, 0.1250000000000000000, 0.000000000000000000 ) ) ;
#88 = LOCAL_TIME ( 18, 35, 17.00000000000000000, #9 ) ;
#89 = VERTEX_POINT ( 'NONE', #313 ) ;
#90 = EDGE_CURVE ( 'NONE', #170, #36, #164, .T. ) ;
#91 = LINE ( 'NONE', #207, #181 ) ;
#92 = EDGE_LOOP ( 'NONE', ( #329, #204, #326, #287 ) ) ;
#93 = APPLICATION_PROTOCOL_DEFINITION ( 'international standard', 'config_control_design', 1994, #364 ) ;
#94 = VERTEX_POINT ( 'NONE', #318 ) ;
#95 = ORIENTED_EDGE ( 'NONE', *, *, #348, .F. ) ;
#96 = SECURITY_CLASSIFICATION_LEVEL ( 'unclassified' ) ;
#97 = CC_DESIGN_SECURITY_CLASSIFICATION ( #312, ( #19 ) ) ;
#98 = CARTESIAN_POINT ( 'NONE',  ( 4.024999999999999467, 0.1250000000000000000, 4.024999999999999467 ) ) ;
#99 = EDGE_CURVE ( 'NONE', #60, #113, #308, .T. ) ;
#100 = PLANE ( 'NONE',  #133 ) ;
#101 = AXIS2_PLACEMENT_3D ( 'NONE', #234, #174, #237 ) ;
#102 = DIRECTION ( 'NONE',  ( -0.000000000000000000, 1.000000000000000000, -0.000000000000000000 ) ) ;
#103 = CARTESIAN_POINT ( 'NONE',  ( -4.024999999999999467, 0.1250000000000000000, 4.024999999999999467 ) ) ;
#104 = EDGE_CURVE ( 'NONE', #32, #5, #80, .T. ) ;
#105 = CARTESIAN_POINT ( 'NONE',  ( -4.124999999999999112, 0.000000000000000000, 4.125000000000000000 ) ) ;
#106 = DIRECTION ( 'NONE',  ( -0.000000000000000000, 1.000000000000000000, -0.000000000000000000 ) ) ;
#107 = DIRECTION ( 'NONE',  ( -0.000000000000000000, 1.000000000000000000, -0.000000000000000000 ) ) ;
#108 = LINE ( 'NONE', #132, #166 ) ;
#109 = LINE ( 'NONE', #103, #317 ) ;
#110 = PLANE ( 'NONE',  #54 ) ;
#111 = VECTOR ( 'NONE', #344, 39.37007874015748143 ) ;
#112 = CARTESIAN_POINT ( 'NONE',  ( -4.024999999999999467, 0.1250000000000000000, 4.024999999999999467 ) ) ;
#113 = VERTEX_POINT ( 'NONE', #258 ) ;
#114 = FACE_OUTER_BOUND ( 'NONE', #299, .T. ) ;
#115 = EDGE_CURVE ( 'NONE', #226, #155, #15, .T. ) ;
#116 = DIRECTION ( 'NONE',  ( 1.000000000000000000, 0.000000000000000000, -0.000000000000000000 ) ) ;
#117 = PERSON_AND_ORGANIZATION ( #50, #334 ) ;
#118 = EDGE_LOOP ( 'NONE', ( #24, #360, #86, #8 ) ) ;
#119 = CALENDAR_DATE ( 2026, 19, 4 ) ;
#120 = ORIENTED_EDGE ( 'NONE', *, *, #141, .T. ) ;
#121 = APPROVAL_DATE_TIME ( #31, #369 ) ;
#122 = ORIENTED_EDGE ( 'NONE', *, *, #115, .F. ) ;
#123 = DATE_TIME_ROLE ( 'creation_date' ) ;
#124 = ORIENTED_EDGE ( 'NONE', *, *, #104, .T. ) ;
#125 = APPROVAL_DATE_TIME ( #356, #250 ) ;
#126 = ORIENTED_EDGE ( 'NONE', *, *, #374, .F. ) ;
#127 = CARTESIAN_POINT ( 'NONE',  ( 4.024999999999999467, 0.1250000000000000000, 4.024999999999999467 ) ) ;
#128 = EDGE_CURVE ( 'NONE', #245, #5, #169, .T. ) ;
#129 = VECTOR ( 'NONE', #107, 39.37007874015748143 ) ;
#130 = EDGE_LOOP ( 'NONE', ( #11, #126, #201, #136 ) ) ;
#131 = CARTESIAN_POINT ( 'NONE',  ( -4.024999999999999467, 0.1250000000000000000, 4.024999999999999467 ) ) ;
#132 = CARTESIAN_POINT ( 'NONE',  ( 4.125000000000000000, 0.2500000000000000000, -4.125000000000000000 ) ) ;
#133 = AXIS2_PLACEMENT_3D ( 'NONE', #22, #257, #363 ) ;
#134 = PLANE ( 'NONE',  #67 ) ;
#135 = CARTESIAN_POINT ( 'NONE',  ( -4.124999999999999112, 0.000000000000000000, 4.125000000000000000 ) ) ;
#136 = ORIENTED_EDGE ( 'NONE', *, *, #323, .T. ) ;
#137 = EDGE_LOOP ( 'NONE', ( #303, #327, #122, #297 ) ) ;
#138 = CARTESIAN_POINT ( 'NONE',  ( 4.024999999999999467, 0.1250000000000000000, 4.024999999999999467 ) ) ;
#139 = ORIENTED_EDGE ( 'NONE', *, *, #168, .T. ) ;
#140 = FACE_OUTER_BOUND ( 'NONE', #137, .T. ) ;
#141 = EDGE_CURVE ( 'NONE', #273, #226, #109, .T. ) ;
#142 = CARTESIAN_POINT ( 'NONE',  ( -4.124999999999999112, 0.2500000000000000000, 4.125000000000000000 ) ) ;
#143 = CC_DESIGN_APPROVAL ( #182, ( #312 ) ) ;
#144 = PLANE ( 'NONE',  #4 ) ;
#145 = APPLICATION_PROTOCOL_DEFINITION ( 'international standard', 'config_control_design', 1994, #189 ) ;
#146 = APPROVAL_STATUS ( 'not_yet_approved' ) ;
#147 = VECTOR ( 'NONE', #339, 39.37007874015748143 ) ;
#148 = VERTEX_POINT ( 'NONE', #76 ) ;
#149 = VECTOR ( 'NONE', #343, 39.37007874015748143 ) ;
#150 = APPROVAL_ROLE ( '' ) ;
#151 = ORIENTED_EDGE ( 'NONE', *, *, #29, .T. ) ;
#152 = ORIENTED_EDGE ( 'NONE', *, *, #215, .F. ) ;
#153 = MANIFOLD_SOLID_BREP ( 'Cut-Extrude1', #200 ) ;
#154 = APPROVAL_ROLE ( '' ) ;
#155 = VERTEX_POINT ( 'NONE', #350 ) ;
#156 = ADVANCED_BREP_SHAPE_REPRESENTATION ( 'Lid', ( #153, #253 ), #33 ) ;
#157 = DIRECTION ( 'NONE',  ( -1.000000000000000000, 0.000000000000000000, -0.000000000000000000 ) ) ;
#158 = EDGE_CURVE ( 'NONE', #89, #94, #28, .T. ) ;
#159 = DIRECTION ( 'NONE',  ( 0.000000000000000000, 0.000000000000000000, -1.000000000000000000 ) ) ;
#160 = VECTOR ( 'NONE', #376, 39.37007874015748143 ) ;
#161 = CARTESIAN_POINT ( 'NONE',  ( 4.024999999999999467, 0.1250000000000000000, -4.024999999999999467 ) ) ;
#162 = CARTESIAN_POINT ( 'NONE',  ( 4.024999999999999467, 0.2500000000000000000, -4.024999999999999467 ) ) ;
#163 = DIRECTION ( 'NONE',  ( 0.000000000000000000, 0.000000000000000000, -1.000000000000000000 ) ) ;
#164 = LINE ( 'NONE', #230, #345 ) ;
#165 = DIRECTION ( 'NONE',  ( -1.000000000000000000, -0.000000000000000000, -0.000000000000000000 ) ) ;
#166 = VECTOR ( 'NONE', #305, 39.37007874015748143 ) ;
#167 = DIRECTION ( 'NONE',  ( -0.000000000000000000, 1.000000000000000000, -0.000000000000000000 ) ) ;
#168 = EDGE_CURVE ( 'NONE', #113, #94, #175, .T. ) ;
#169 = LINE ( 'NONE', #368, #111 ) ;
#170 = VERTEX_POINT ( 'NONE', #324 ) ;
#171 = DESIGN_CONTEXT ( 'detailed design', #364, 'design' ) ;
#172 = LINE ( 'NONE', #321, #34 ) ;
#173 = ADVANCED_FACE ( 'NONE', ( #235 ), #203, .F. ) ;
#174 = DIRECTION ( 'NONE',  ( -1.000000000000000000, 0.000000000000000000, 0.000000000000000000 ) ) ;
#175 = LINE ( 'NONE', #263, #328 ) ;
#176 = ORIENTED_EDGE ( 'NONE', *, *, #21, .F. ) ;
#177 = DIRECTION ( 'NONE',  ( -0.000000000000000000, -1.000000000000000000, -0.000000000000000000 ) ) ;
#178 = EDGE_LOOP ( 'NONE', ( #301, #259, #2, #66 ) ) ;
#179 = DATE_AND_TIME ( #272, #88 ) ;
#180 = ORIENTED_EDGE ( 'NONE', *, *, #323, .F. ) ;
#181 = VECTOR ( 'NONE', #295, 39.37007874015748143 ) ;
#182 = APPROVAL ( #208, 'UNSPECIFIED' ) ;
#183 = CALENDAR_DATE ( 2026, 19, 4 ) ;
#184 = VERTEX_POINT ( 'NONE', #202 ) ;
#185 = COORDINATED_UNIVERSAL_TIME_OFFSET ( 8, 0, .BEHIND. ) ;
#186 = ORIENTED_EDGE ( 'NONE', *, *, #21, .T. ) ;
#187 = EDGE_CURVE ( 'NONE', #94, #357, #172, .T. ) ;
#188 = LOCAL_TIME ( 18, 35, 17.00000000000000000, #210 ) ;
#189 = APPLICATION_CONTEXT ( 'configuration controlled 3d designs of mechanical parts and assemblies' ) ;
#190 = DIRECTION ( 'NONE',  ( 0.000000000000000000, 0.000000000000000000, -1.000000000000000000 ) ) ;
#191 = DIRECTION ( 'NONE',  ( -0.000000000000000000, -0.000000000000000000, 1.000000000000000000 ) ) ;
#192 = PLANE ( 'NONE',  #270 ) ;
#193 = CARTESIAN_POINT ( 'NONE',  ( -4.024999999999999467, 0.1250000000000000000, 4.024999999999999467 ) ) ;
#194 = FACE_OUTER_BOUND ( 'NONE', #92, .T. ) ;
#195 = DIRECTION ( 'NONE',  ( 1.000000000000000000, 0.000000000000000000, 0.000000000000000000 ) ) ;
#196 = CARTESIAN_POINT ( 'NONE',  ( 4.024999999999999467, 0.1250000000000000000, -4.024999999999999467 ) ) ;
#197 = EDGE_CURVE ( 'NONE', #89, #148, #353, .T. ) ;
#198 = VECTOR ( 'NONE', #165, 39.37007874015748143 ) ;
#199 = DIRECTION ( 'NONE',  ( 0.000000000000000000, 0.000000000000000000, -1.000000000000000000 ) ) ;
#200 = CLOSED_SHELL ( 'NONE', ( #173, #254, #48, #39, #45, #294, #335, #267, #10, #379, #239 ) ) ;
#201 = ORIENTED_EDGE ( 'NONE', *, *, #358, .F. ) ;
#202 = CARTESIAN_POINT ( 'NONE',  ( 4.125000000000000000, 0.2500000000000000000, 4.125000000000000000 ) ) ;
#203 = PLANE ( 'NONE',  #101 ) ;
#204 = ORIENTED_EDGE ( 'NONE', *, *, #229, .F. ) ;
#205 = CARTESIAN_POINT ( 'NONE',  ( 4.024999999999999467, 0.2500000000000000000, 4.024999999999999467 ) ) ;
#206 = ORIENTED_EDGE ( 'NONE', *, *, #229, .T. ) ;
#207 = CARTESIAN_POINT ( 'NONE',  ( -4.124999999999999112, 0.2500000000000000000, -4.125000000000000000 ) ) ;
#208 = APPROVAL_STATUS ( 'not_yet_approved' ) ;
#209 = ORIENTED_EDGE ( 'NONE', *, *, #141, .F. ) ;
#210 = COORDINATED_UNIVERSAL_TIME_OFFSET ( 8, 0, .BEHIND. ) ;
#211 = VERTEX_POINT ( 'NONE', #325 ) ;
#212 = PERSON_AND_ORGANIZATION_ROLE ( 'creator' ) ;
#213 = ORIENTED_EDGE ( 'NONE', *, *, #374, .T. ) ;
#214 = VECTOR ( 'NONE', #167, 39.37007874015748143 ) ;
#215 = EDGE_CURVE ( 'NONE', #211, #89, #91, .T. ) ;
#216 = ORIENTED_EDGE ( 'NONE', *, *, #362, .T. ) ;
#217 = LOCAL_TIME ( 18, 35, 17.00000000000000000, #185 ) ;
#218 = PERSON_AND_ORGANIZATION ( #50, #334 ) ;
#219 = CARTESIAN_POINT ( 'NONE',  ( -4.024999999999999467, 0.1250000000000000000, -4.024999999999999467 ) ) ;
#220 = APPROVAL_PERSON_ORGANIZATION ( #73, #369, #154 ) ;
#221 = VECTOR ( 'NONE', #310, 39.37007874015748143 ) ;
#222 = FACE_OUTER_BOUND ( 'NONE', #381, .T. ) ;
#223 = CC_DESIGN_PERSON_AND_ORGANIZATION_ASSIGNMENT ( #244, #212, ( #19 ) ) ;
#224 = DIRECTION ( 'NONE',  ( 1.000000000000000000, 0.000000000000000000, 0.000000000000000000 ) ) ;
#225 = CARTESIAN_POINT ( 'NONE',  ( -4.024999999999999467, 0.2500000000000000000, -4.024999999999999467 ) ) ;
#226 = VERTEX_POINT ( 'NONE', #112 ) ;
#227 = DIMENSIONAL_EXPONENTS ( 1.000000000000000000, 0.000000000000000000, 0.000000000000000000, 0.000000000000000000, 0.000000000000000000, 0.000000000000000000, 0.000000000000000000 ) ;
#228 = LINE ( 'NONE', #306, #198 ) ;
#229 = EDGE_CURVE ( 'NONE', #148, #357, #347, .T. ) ;
#230 = CARTESIAN_POINT ( 'NONE',  ( -4.024999999999999467, 0.2500000000000000000, 4.024999999999999467 ) ) ;
#231 = LINE ( 'NONE', #105, #298 ) ;
#232 = CARTESIAN_POINT ( 'NONE',  ( -4.024999999999999467, 0.1250000000000000000, 4.024999999999999467 ) ) ;
#233 = VECTOR ( 'NONE', #62, 39.37007874015748143 ) ;
#234 = CARTESIAN_POINT ( 'NONE',  ( 4.125000000000000000, 0.2500000000000000000, 4.125000000000000000 ) ) ;
#235 = FACE_OUTER_BOUND ( 'NONE', #130, .T. ) ;
#236 = APPROVAL_PERSON_ORGANIZATION ( #71, #250, #150 ) ;
#237 = DIRECTION ( 'NONE',  ( 0.000000000000000000, 0.000000000000000000, 1.000000000000000000 ) ) ;
#238 = DIRECTION ( 'NONE',  ( 0.000000000000000000, 0.000000000000000000, 1.000000000000000000 ) ) ;
#239 = ADVANCED_FACE ( 'NONE', ( #114 ), #59, .F. ) ;
#240 = APPROVAL_DATE_TIME ( #37, #182 ) ;
#241 = EDGE_LOOP ( 'NONE', ( #271, #72, #38, #26 ) ) ;
#242 = CALENDAR_DATE ( 2026, 19, 4 ) ;
#243 = EDGE_LOOP ( 'NONE', ( #23, #176, #95, #124 ) ) ;
#244 = PERSON_AND_ORGANIZATION ( #50, #334 ) ;
#245 = VERTEX_POINT ( 'NONE', #205 ) ;
#246 = PERSON_AND_ORGANIZATION ( #50, #334 ) ;
#247 = LINE ( 'NONE', #43, #316 ) ;
#248 = UNCERTAINTY_MEASURE_WITH_UNIT (LENGTH_MEASURE( 1.000000000000000082E-05 ), #74, 'distance_accuracy_value', 'NONE');
#249 = VECTOR ( 'NONE', #102, 39.37007874015748143 ) ;
#250 = APPROVAL ( #146, 'UNSPECIFIED' ) ;
#251 = CARTESIAN_POINT ( 'NONE',  ( -4.024999999999999467, 0.2500000000000000000, 4.024999999999999467 ) ) ;
#252 = ORIENTED_EDGE ( 'NONE', *, *, #281, .T. ) ;
#253 = AXIS2_PLACEMENT_3D ( 'NONE', #276, #238, #35 ) ;
#254 = ADVANCED_FACE ( 'NONE', ( #30 ), #144, .F. ) ;
#255 = DIRECTION ( 'NONE',  ( -0.000000000000000000, -1.000000000000000000, -0.000000000000000000 ) ) ;
#256 = CARTESIAN_POINT ( 'NONE',  ( -4.024999999999999467, 0.1250000000000000000, -4.024999999999999467 ) ) ;
#257 = DIRECTION ( 'NONE',  ( 0.000000000000000000, -1.000000000000000000, 0.000000000000000000 ) ) ;
#258 = CARTESIAN_POINT ( 'NONE',  ( 4.125000000000000000, 0.000000000000000000, -4.125000000000000000 ) ) ;
#259 = ORIENTED_EDGE ( 'NONE', *, *, #104, .F. ) ;
#260 = DIRECTION ( 'NONE',  ( 1.000000000000000000, 0.000000000000000000, 0.000000000000000000 ) ) ;
#261 = CARTESIAN_POINT ( 'NONE',  ( -4.124999999999999112, 0.2500000000000000000, 4.125000000000000000 ) ) ;
#262 = PRODUCT_DEFINITION ( 'UNKNOWN', '', #19, #171 ) ;
#263 = CARTESIAN_POINT ( 'NONE',  ( -4.124999999999999112, 0.000000000000000000, -4.125000000000000000 ) ) ;
#264 = APPROVAL_PERSON_ORGANIZATION ( #218, #182, #333 ) ;
#265 = DIRECTION ( 'NONE',  ( 0.000000000000000000, 0.000000000000000000, 1.000000000000000000 ) ) ;
#266 = COORDINATED_UNIVERSAL_TIME_OFFSET ( 8, 0, .BEHIND. ) ;
#267 = ADVANCED_FACE ( 'NONE', ( #140 ), #110, .F. ) ;
#268 = VECTOR ( 'NONE', #255, 39.37007874015748143 ) ;
#269 = DATE_TIME_ROLE ( 'classification_date' ) ;
#270 = AXIS2_PLACEMENT_3D ( 'NONE', #315, #25, #47 ) ;
#271 = ORIENTED_EDGE ( 'NONE', *, *, #99, .F. ) ;
#272 = CALENDAR_DATE ( 2026, 19, 4 ) ;
#273 = VERTEX_POINT ( 'NONE', #346 ) ;
#274 = PERSON_AND_ORGANIZATION ( #50, #334 ) ;
#275 = ORIENTED_EDGE ( 'NONE', *, *, #115, .T. ) ;
#276 = CARTESIAN_POINT ( 'NONE',  ( 0.000000000000000000, 0.000000000000000000, 0.000000000000000000 ) ) ;
#277 = ORIENTED_EDGE ( 'NONE', *, *, #307, .F. ) ;
#278 = PLANE ( 'NONE',  #352 ) ;
#279 = VECTOR ( 'NONE', #224, 39.37007874015748143 ) ;
#280 = CARTESIAN_POINT ( 'NONE',  ( 4.125000000000000000, 0.000000000000000000, 4.125000000000000000 ) ) ;
#281 = EDGE_CURVE ( 'NONE', #148, #184, #83, .T. ) ;
#282 = CARTESIAN_POINT ( 'NONE',  ( -4.124999999999999112, 0.2500000000000000000, 4.125000000000000000 ) ) ;
#283 = CARTESIAN_POINT ( 'NONE',  ( 4.125000000000000000, 0.000000000000000000, 4.125000000000000000 ) ) ;
#284 = LOCAL_TIME ( 18, 35, 17.00000000000000000, #6 ) ;
#285 =( NAMED_UNIT ( * ) PLANE_ANGLE_UNIT ( ) SI_UNIT ( $, .RADIAN. ) );
#286 = LINE ( 'NONE', #251, #279 ) ;
#287 = ORIENTED_EDGE ( 'NONE', *, *, #158, .T. ) ;
#288 = DIRECTION ( 'NONE',  ( -1.000000000000000000, 0.000000000000000000, -0.000000000000000000 ) ) ;
#289 = CARTESIAN_POINT ( 'NONE',  ( -4.124999999999999112, 0.2500000000000000000, -4.125000000000000000 ) ) ;
#290 = CC_DESIGN_PERSON_AND_ORGANIZATION_ASSIGNMENT ( #117, #331, ( #262 ) ) ;
#291 = DIRECTION ( 'NONE',  ( 1.000000000000000000, 0.000000000000000000, 0.000000000000000000 ) ) ;
#292 = DIRECTION ( 'NONE',  ( 0.000000000000000000, -0.000000000000000000, -1.000000000000000000 ) ) ;
#293 = SHAPE_DEFINITION_REPRESENTATION ( #351, #156 ) ;
#294 = ADVANCED_FACE ( 'NONE', ( #27 ), #100, .T. ) ;
#295 = DIRECTION ( 'NONE',  ( -1.000000000000000000, -0.000000000000000000, -0.000000000000000000 ) ) ;
#296 = CALENDAR_DATE ( 2026, 19, 4 ) ;
#297 = ORIENTED_EDGE ( 'NONE', *, *, #307, .T. ) ;
#298 = VECTOR ( 'NONE', #260, 39.37007874015748143 ) ;
#299 = EDGE_LOOP ( 'NONE', ( #216, #41, #120, #275 ) ) ;
#300 = APPROVAL_STATUS ( 'not_yet_approved' ) ;
#301 = ORIENTED_EDGE ( 'NONE', *, *, #128, .T. ) ;
#302 = CC_DESIGN_DATE_AND_TIME_ASSIGNMENT ( #63, #269, ( #312 ) ) ;
#303 = ORIENTED_EDGE ( 'NONE', *, *, #64, .T. ) ;
#304 = VECTOR ( 'NONE', #314, 39.37007874015748143 ) ;
#305 = DIRECTION ( 'NONE',  ( -0.000000000000000000, -1.000000000000000000, -0.000000000000000000 ) ) ;
#306 = CARTESIAN_POINT ( 'NONE',  ( -4.024999999999999467, 0.1250000000000000000, -4.024999999999999467 ) ) ;
#307 = EDGE_CURVE ( 'NONE', #226, #36, #12, .T. ) ;
#308 = LINE ( 'NONE', #280, #149 ) ;
#309 = EDGE_CURVE ( 'NONE', #5, #170, #371, .T. ) ;
#310 = DIRECTION ( 'NONE',  ( 1.000000000000000000, 0.000000000000000000, 0.000000000000000000 ) ) ;
#311 = LINE ( 'NONE', #98, #304 ) ;
#312 = SECURITY_CLASSIFICATION ( '', '', #96 ) ;
#313 = CARTESIAN_POINT ( 'NONE',  ( -4.124999999999999112, 0.2500000000000000000, -4.125000000000000000 ) ) ;
#314 = DIRECTION ( 'NONE',  ( 0.000000000000000000, 0.000000000000000000, -1.000000000000000000 ) ) ;
#315 = CARTESIAN_POINT ( 'NONE',  ( -4.124999999999999112, 0.2500000000000000000, 4.125000000000000000 ) ) ;
#316 = VECTOR ( 'NONE', #163, 39.37007874015748143 ) ;
#317 = VECTOR ( 'NONE', #338, 39.37007874015748143 ) ;
#318 = CARTESIAN_POINT ( 'NONE',  ( -4.124999999999999112, 0.000000000000000000, -4.125000000000000000 ) ) ;
#319 = ORIENTED_EDGE ( 'NONE', *, *, #158, .F. ) ;
#320 = CC_DESIGN_PERSON_AND_ORGANIZATION_ASSIGNMENT ( #40, #68, ( #61 ) ) ;
#321 = CARTESIAN_POINT ( 'NONE',  ( -4.124999999999999112, 0.000000000000000000, 4.125000000000000000 ) ) ;
#322 = DIRECTION ( 'NONE',  ( -0.000000000000000000, -0.000000000000000000, 1.000000000000000000 ) ) ;
#323 = EDGE_CURVE ( 'NONE', #184, #60, #79, .T. ) ;
#324 = CARTESIAN_POINT ( 'NONE',  ( -4.024999999999999467, 0.2500000000000000000, -4.024999999999999467 ) ) ;
#325 = CARTESIAN_POINT ( 'NONE',  ( 4.125000000000000000, 0.2500000000000000000, -4.125000000000000000 ) ) ;
#326 = ORIENTED_EDGE ( 'NONE', *, *, #197, .F. ) ;
#327 = ORIENTED_EDGE ( 'NONE', *, *, #69, .F. ) ;
#328 = VECTOR ( 'NONE', #382, 39.37007874015748143 ) ;
#329 = ORIENTED_EDGE ( 'NONE', *, *, #187, .T. ) ;
#330 = PRODUCT_RELATED_PRODUCT_CATEGORY ( 'detail', '', ( #61 ) ) ;
#331 = PERSON_AND_ORGANIZATION_ROLE ( 'creator' ) ;
#332 = ORIENTED_EDGE ( 'NONE', *, *, #281, .F. ) ;
#333 = APPROVAL_ROLE ( '' ) ;
#334 = ORGANIZATION ( 'UNSPECIFIED', 'UNSPECIFIED', '' ) ;
#335 = ADVANCED_FACE ( 'NONE', ( #18 ), #373, .F. ) ;
#336 =( LENGTH_UNIT ( ) NAMED_UNIT ( * ) SI_UNIT ( $, .METRE. ) );
#337 = FACE_OUTER_BOUND ( 'NONE', #355, .T. ) ;
#338 = DIRECTION ( 'NONE',  ( -0.000000000000000000, -0.000000000000000000, 1.000000000000000000 ) ) ;
#339 = DIRECTION ( 'NONE',  ( -1.000000000000000000, -0.000000000000000000, -0.000000000000000000 ) ) ;
#340 = CARTESIAN_POINT ( 'NONE',  ( -4.024999999999999467, 0.2500000000000000000, 4.024999999999999467 ) ) ;
#341 = FACE_OUTER_BOUND ( 'NONE', #243, .T. ) ;
#342 = LOCAL_TIME ( 18, 35, 17.00000000000000000, #266 ) ;
#343 = DIRECTION ( 'NONE',  ( 0.000000000000000000, 0.000000000000000000, -1.000000000000000000 ) ) ;
#344 = DIRECTION ( 'NONE',  ( 0.000000000000000000, 0.000000000000000000, -1.000000000000000000 ) ) ;
#345 = VECTOR ( 'NONE', #191, 39.37007874015748143 ) ;
#346 = CARTESIAN_POINT ( 'NONE',  ( -4.024999999999999467, 0.1250000000000000000, -4.024999999999999467 ) ) ;
#347 = LINE ( 'NONE', #261, #233 ) ;
#348 = EDGE_CURVE ( 'NONE', #32, #273, #228, .T. ) ;
#349 = EDGE_LOOP ( 'NONE', ( #70, #377, #53, #252 ) ) ;
#350 = CARTESIAN_POINT ( 'NONE',  ( 4.024999999999999467, 0.1250000000000000000, 4.024999999999999467 ) ) ;
#351 = PRODUCT_DEFINITION_SHAPE ( 'NONE', 'NONE',  #262 ) ;
#352 = AXIS2_PLACEMENT_3D ( 'NONE', #219, #159, #157 ) ;
#353 = LINE ( 'NONE', #142, #160 ) ;
#354 = PERSON_AND_ORGANIZATION_ROLE ( 'design_supplier' ) ;
#355 = EDGE_LOOP ( 'NONE', ( #7, #277, #209, #186 ) ) ;
#356 = DATE_AND_TIME ( #242, #284 ) ;
#357 = VERTEX_POINT ( 'NONE', #135 ) ;
#358 = EDGE_CURVE ( 'NONE', #184, #211, #247, .T. ) ;
#359 = MECHANICAL_CONTEXT ( 'NONE', #189, 'mechanical' ) ;
#360 = ORIENTED_EDGE ( 'NONE', *, *, #128, .F. ) ;
#361 = PERSON_AND_ORGANIZATION_ROLE ( 'classification_officer' ) ;
#362 = EDGE_CURVE ( 'NONE', #155, #32, #311, .T. ) ;
#363 = DIRECTION ( 'NONE',  ( 0.000000000000000000, -0.000000000000000000, -1.000000000000000000 ) ) ;
#364 = APPLICATION_CONTEXT ( 'configuration controlled 3d designs of mechanical parts and assemblies' ) ;
#365 = AXIS2_PLACEMENT_3D ( 'NONE', #127, #195, #190 ) ;
#366 = LENGTH_MEASURE_WITH_UNIT ( LENGTH_MEASURE( 0.02539999999999999897 ), #336 );
#367 = VECTOR ( 'NONE', #177, 39.37007874015748143 ) ;
#368 = CARTESIAN_POINT ( 'NONE',  ( 4.024999999999999467, 0.2500000000000000000, 4.024999999999999467 ) ) ;
#369 = APPROVAL ( #300, 'UNSPECIFIED' ) ;
#370 = PLANE ( 'NONE',  #82 ) ;
#371 = LINE ( 'NONE', #225, #147 ) ;
#372 = CARTESIAN_POINT ( 'NONE',  ( 0.000000000000000000, 0.2500000000000000000, 0.000000000000000000 ) ) ;
#373 = PLANE ( 'NONE',  #365 ) ;
#374 = EDGE_CURVE ( 'NONE', #211, #113, #108, .T. ) ;
#375 = CARTESIAN_POINT ( 'NONE',  ( -4.024999999999999467, 0.1250000000000000000, 4.024999999999999467 ) ) ;
#376 = DIRECTION ( 'NONE',  ( -0.000000000000000000, -0.000000000000000000, 1.000000000000000000 ) ) ;
#377 = ORIENTED_EDGE ( 'NONE', *, *, #215, .T. ) ;
#378 = AXIS2_PLACEMENT_3D ( 'NONE', #282, #199, #46 ) ;
#379 = ADVANCED_FACE ( 'NONE', ( #341 ), #278, .F. ) ;
#380 = DIRECTION ( 'NONE',  ( -0.000000000000000000, 0.000000000000000000, 1.000000000000000000 ) ) ;
#381 = EDGE_LOOP ( 'NONE', ( #151, #180, #332, #206 ) ) ;
#382 = DIRECTION ( 'NONE',  ( -1.000000000000000000, -0.000000000000000000, -0.000000000000000000 ) ) ;
ENDSEC;
END-ISO-10303-21;
